<?xml version="1.0" encoding="UTF-8"?>
<!DOCTYPE svg PUBLIC "-//W3C//DTD SVG 1.1//EN" "http://www.w3.org/Graphics/SVG/1.1/DTD/svg11.dtd">
<svg xmlns="http://www.w3.org/2000/svg" xml:space="preserve" version="1.1"
  width="200px" height="70px"
  viewBox="0 0 20000 7000"
  style="shape-rendering:geometricPrecision; text-rendering:geometricPrecision; image-rendering:optimizeQuality; fill-rule:evenodd; clip-rule:evenodd"
  xmlns:xlink="http://www.w3.org/1999/xlink">
 <defs>
  <style type="text/css">
   <![CDATA[
    .fil1 {fill:#2B2A29}
    .fil0 {fill:#2B2A29;fill-rule:nonzero}
   ]]>
  </style>
 </defs>
  <g id="x1">
    <path class="fil0" d="M3109 5544c316,-3 607,50 918,85l0 0c178,4 205,-163 231,-328 18,-117 37,-234 99,-317 13,-18 29,-35 46,-49 18,-15 37,-28 58,-38 29,-15 69,-22 101,-26 12,-104 -73,-149 -51,-289l8 -52c53,3 142,14 186,-12 23,-13 35,-43 31,-96 -22,-105 -52,-223 14,-319l9 -13 14 -6c139,-67 313,-124 334,-301 -46,-86 -96,-170 -145,-253 -104,-174 -202,-340 -271,-531 52,-166 82,-311 89,-485 0,-776 -344,-1466 -986,-1919 -450,-318 -1017,-475 -1618,-384 -319,48 -654,155 -934,330 -728,457 -845,1362 -703,2157 40,221 84,469 70,613 -39,410 -399,561 -419,940 -37,713 1068,1697 1644,1710 224,5 423,-98 622,-202l0 0c204,-106 409,-213 653,-215zm1 114c-214,2 -409,103 -601,203l0 -1c-212,111 -424,221 -677,215 -643,-14 -1797,-1051 -1756,-1830 22,-428 383,-563 419,-945 13,-129 -30,-368 -68,-582 -153,-854 -17,-1772 754,-2274l1 0c294,-184 645,-296 977,-346 632,-97 1227,69 1701,404 638,450 1067,1228 1034,2017 -6,162 -34,325 -82,476 67,173 157,325 248,477 57,95 110,189 163,287 -21,263 -173,320 -386,421 -42,87 9,163 13,233 8,105 -27,168 -87,204 -39,22 -87,31 -140,32 15,104 83,113 46,273 -15,46 -65,52 -107,63 -53,15 -80,22 -113,67 -46,62 -63,165 -79,267 -34,215 -68,430 -345,424l0 0c-300,-6 -595,-87 -915,-85z"/>
    <path class="fil0" d="M3332 4164c203,-2 389,32 588,55l0 0c114,2 131,-105 148,-211 12,-75 24,-150 64,-203 8,-11 18,-22 30,-31 11,-10 23,-18 36,-25 19,-9 44,-14 65,-16 8,-67 -47,-96 -33,-186l6 -33c34,3 91,9 119,-7 14,-9 22,-28 20,-62 -14,-67 -34,-143 9,-204l5 -9 9 -4c90,-42 201,-79 214,-193 -29,-55 -61,-109 -93,-162 -66,-111 -129,-218 -173,-340 33,-106 52,-199 57,-311 0,-497 -221,-940 -632,-1230 -289,-204 -652,-305 -1037,-246 -204,31 -419,99 -599,211 -467,293 -542,873 -450,1383 25,142 54,300 45,393 -26,263 -256,359 -269,602 -24,457 684,1088 1054,1097 143,3 271,-63 398,-130l0 0c131,-68 263,-137 419,-138zm0 73c-137,1 -262,66 -385,130l0 0c-136,71 -272,142 -434,138 -412,-9 -1151,-674 -1125,-1173 14,-275 245,-361 269,-606 8,-83 -20,-236 -44,-373 -98,-548 -11,-1136 483,-1457l0 0c189,-119 414,-190 627,-223 405,-61 787,45 1090,259 409,289 684,788 663,1293 -4,104 -22,208 -53,306 43,110 101,208 159,305 37,61 71,121 105,184 -13,169 -111,205 -247,270 -28,56 5,105 8,149 5,68 -17,108 -56,131 -25,14 -56,20 -90,21 10,66 54,72 30,175 -10,29 -42,33 -69,40 -34,9 -51,14 -72,43 -30,39 -40,105 -51,171 -21,138 -44,276 -221,272l0 0c-192,-4 -381,-56 -587,-55z"/>
    <path class="fil0" d="M2678 5107c205,-1 393,33 595,55l0 0c114,3 132,-105 149,-212 12,-75 24,-151 64,-205 8,-11 19,-22 30,-32 11,-9 24,-18 37,-24 19,-10 45,-14 66,-17 7,-67 -48,-96 -33,-187l5 -34c34,3 92,9 120,-7 15,-9 23,-28 20,-63 -14,-67 -34,-144 9,-206l6 -8 9 -4c90,-43 202,-81 216,-195 -30,-56 -62,-110 -94,-164 -67,-112 -130,-220 -175,-343 34,-107 53,-201 58,-314 0,-502 -223,-948 -638,-1241 -291,-206 -658,-308 -1047,-249 -206,31 -423,100 -604,214 -471,295 -547,881 -455,1395 26,143 54,304 45,397 -25,265 -258,362 -271,608 -24,461 691,1098 1064,1106 145,4 273,-63 402,-130l0 0c132,-69 265,-138 422,-140zm1 74c-139,1 -264,67 -389,131l0 0c-137,72 -274,143 -438,139 -416,-9 -1162,-680 -1136,-1184 15,-277 248,-364 272,-611 8,-84 -20,-238 -45,-377 -99,-553 -11,-1146 488,-1471l1 0c190,-119 417,-191 632,-224 409,-62 794,45 1100,261 413,291 691,795 670,1305 -5,106 -23,210 -54,309 43,111 102,210 160,308 38,61 72,122 106,186 -13,170 -112,207 -249,272 -28,56 6,106 8,151 5,68 -17,108 -56,131 -25,15 -57,21 -91,22 10,66 54,73 30,176 -10,30 -42,33 -69,41 -35,10 -52,14 -74,43 -29,40 -40,107 -51,173 -21,139 -44,278 -223,274l0 0c-194,-4 -385,-56 -592,-55z"/>
    <path class="fil0" d="M2550 4200c203,-2 389,32 589,54l0 0c114,3 131,-104 148,-210 11,-75 24,-150 63,-203 9,-11 19,-22 30,-32 11,-9 24,-17 37,-24 19,-9 44,-14 65,-17 8,-66 -47,-95 -33,-185l6 -33c33,2 90,9 119,-8 14,-8 22,-27 20,-62 -15,-66 -34,-142 8,-204l6 -8 9 -4c89,-43 201,-80 214,-193 -29,-55 -61,-109 -93,-162 -66,-111 -129,-218 -173,-341 33,-105 52,-199 57,-310 0,-497 -221,-940 -632,-1230 -289,-204 -652,-305 -1037,-246 -205,31 -419,99 -599,211 -467,293 -542,873 -451,1383 26,142 54,300 45,393 -25,262 -255,359 -268,602 -24,457 684,1088 1054,1096 143,4 270,-63 398,-129l0 0c131,-68 262,-137 418,-138zm1 73c-137,1 -262,66 -385,130l0 0c-136,71 -272,141 -434,137 -412,-9 -1152,-673 -1125,-1173 14,-274 245,-361 268,-605 8,-83 -19,-236 -44,-373 -98,-548 -10,-1136 484,-1458l0 0c189,-118 414,-190 627,-222 405,-62 786,45 1090,259 409,288 684,788 663,1293 -4,104 -22,208 -53,305 43,111 101,209 159,306 37,61 70,121 105,184 -14,169 -111,205 -248,270 -27,55 6,104 9,149 5,68 -18,108 -56,130 -25,15 -56,21 -90,21 9,67 53,73 29,175 -9,30 -41,33 -68,40 -34,10 -51,15 -73,44 -29,39 -40,105 -50,170 -22,138 -44,276 -221,272l0 0c-192,-4 -382,-55 -587,-54z"/>
    <path class="fil0" d="M3355 5283c203,-1 389,32 588,55l0 0c114,2 131,-104 148,-211 12,-74 24,-150 63,-203 9,-11 19,-22 30,-31 12,-10 24,-18 37,-25 19,-9 44,-14 65,-16 8,-67 -47,-96 -33,-186l6 -33c34,3 90,9 119,-7 14,-9 22,-28 20,-62 -14,-67 -34,-143 9,-204l5 -9 9 -4c90,-42 201,-79 214,-193 -29,-55 -61,-109 -93,-162 -66,-111 -129,-218 -173,-340 33,-106 52,-199 57,-311 0,-497 -221,-940 -632,-1230 -289,-204 -652,-305 -1037,-246 -205,31 -419,99 -599,211 -467,293 -542,873 -450,1383 25,142 54,301 45,393 -26,263 -256,359 -269,603 -24,456 684,1087 1054,1096 143,3 271,-63 398,-130l0 0c131,-68 262,-137 419,-138zm0 73c-137,1 -262,66 -385,130l0 0c-136,71 -272,142 -434,138 -412,-9 -1151,-674 -1125,-1173 14,-275 245,-362 269,-606 7,-83 -20,-236 -45,-373 -98,-548 -10,-1136 484,-1457l0 0c189,-119 414,-190 627,-223 405,-61 786,45 1090,259 409,289 684,788 663,1293 -4,104 -22,208 -53,306 43,110 101,208 159,305 37,61 71,121 105,184 -14,169 -111,205 -248,270 -27,56 6,105 9,149 5,68 -18,108 -56,131 -25,14 -56,20 -90,21 10,66 54,72 30,174 -10,30 -42,34 -69,41 -34,9 -51,14 -72,43 -30,39 -41,105 -51,171 -22,138 -44,276 -221,272l0 0c-192,-4 -381,-56 -587,-55z"/>
    <path class="fil1" d="M7943 5183l275 405c-101,81 -209,146 -329,191 -119,45 -234,76 -344,92 -128,22 -256,31 -383,31 -180,8 -338,-18 -477,-77 -58,-24 -116,-57 -174,-98 -56,-41 -107,-93 -153,-156 -44,-63 -79,-137 -105,-225 -26,-88 -39,-192 -39,-314l0 -890c0,-117 13,-219 39,-306 26,-85 61,-160 105,-222 46,-62 97,-113 153,-153 58,-40 116,-72 174,-95 139,-60 297,-87 477,-84 127,3 255,18 383,42 110,21 225,51 344,93 120,41 228,100 329,176l-275 409c-79,-44 -163,-79 -253,-104 -90,-23 -174,-42 -254,-56 -90,-14 -181,-22 -274,-27 -84,-2 -156,6 -218,27 -55,17 -104,48 -147,93 -45,45 -65,114 -65,207l0 890c0,101 20,174 65,221 43,47 92,79 147,95 62,21 134,29 218,21 93,4 184,-1 274,-15 80,-10 164,-28 254,-52 90,-24 174,-63 253,-119zm11783 0l274 405c-100,81 -210,146 -329,191 -119,45 -234,76 -344,92 -127,22 -255,31 -383,31 -180,8 -339,-18 -477,-77 -59,-24 -116,-57 -174,-98 -56,-41 -107,-93 -152,-156 -45,-63 -80,-137 -106,-225 -26,-88 -39,-192 -39,-314l0 -890c0,-117 13,-219 39,-306 26,-85 61,-160 106,-222 45,-62 96,-113 152,-153 58,-40 115,-72 174,-95 138,-60 297,-87 477,-84 128,3 255,18 383,42 110,21 225,51 344,93 119,41 229,100 329,176l-274 409c-80,-44 -165,-79 -255,-104 -89,-23 -174,-42 -253,-56 -89,-14 -181,-22 -274,-27 -84,-2 -156,6 -218,27 -55,17 -104,48 -147,93 -43,45 -65,114 -65,207l0 890c0,101 21,174 65,221 43,47 92,79 147,95 62,21 134,29 218,21 93,4 185,-1 274,-15 79,-10 164,-28 253,-52 90,-24 175,-63 255,-119zm-5443 -362c-69,7 -137,17 -200,33 -64,16 -120,39 -168,69 -48,32 -88,71 -119,118 -31,46 -47,102 -47,168 0,69 16,122 47,160 31,38 71,66 119,83 48,18 104,26 168,26 63,0 131,-5 200,-16 154,-23 333,-74 533,-150l0 -481c-200,-21 -379,-24 -533,-10zm533 1076l0 -51c-300,90 -568,127 -803,114 -100,-4 -197,-20 -292,-46 -95,-29 -181,-73 -257,-135 -75,-62 -136,-144 -181,-243 -45,-101 -67,-228 -67,-384 0,-135 22,-248 67,-342 45,-93 105,-171 181,-232 76,-64 162,-112 257,-148 95,-37 192,-63 292,-82 235,-36 503,-36 803,0 3,-95 -11,-184 -41,-263 -29,-69 -76,-132 -143,-187 -68,-54 -166,-83 -298,-83 -135,0 -251,12 -349,35 -99,22 -182,47 -251,74 -80,35 -148,71 -203,109l-211 -481c76,-52 165,-97 269,-135 89,-35 196,-66 318,-93 123,-28 266,-42 427,-42 349,0 606,92 769,275 164,183 247,447 247,791l0 1549 -534 0zm-2398 -2597l0 739c-295,-58 -784,-56 -1066,0l0 -739 -534 0 0 2587 534 0 0 -1331c0,-180 1066,-178 1066,0l0 1331 534 0 0 -2587 -534 0zm4588 2c100,7 196,27 290,60 93,32 177,82 251,150 74,67 134,155 179,265 44,108 66,244 66,411l1 1699 -528 0 0 -1797c0,-66 -15,-119 -45,-158 -29,-40 -68,-71 -118,-91 -51,-20 -107,-33 -169,-37 -62,-3 -126,-1 -192,6 -155,14 -331,51 -528,114l0 1963 -528 0 0 -2590 528 0 0 104c297,-83 561,-116 793,-99zm-7773 2579c-100,-7 -197,-26 -290,-60 -93,-32 -177,-82 -251,-149 -74,-68 -134,-155 -178,-265 -46,-108 -68,-245 -68,-411l0 -1699 528 0 0 1797c0,65 15,118 44,159 30,39 69,69 119,90 51,20 106,33 169,36 62,4 126,1 191,-5 156,-14 332,-52 528,-114l0 -1963 529 0 0 2590 -529 0 0 -104c-297,83 -560,116 -792,98z"/>
 </g>
</svg>
