<svg width="57" height="57" viewBox="0 0 57 57" fill="none" xmlns="http://www.w3.org/2000/svg">
<g clip-path="url(#clip0)">
<path d="M54.0775 3.34375H36.3059C34.6924 3.34375 33.3829 4.65324 33.3829 6.26672V24.0384C33.3829 25.6519 34.6924 26.9613 36.3059 26.9613H44.8117C44.7007 31.6148 43.6192 35.3386 41.5731 38.1388C39.9596 40.3485 37.5161 42.1783 34.2481 43.6223C32.7457 44.2829 32.0968 46.06 32.7983 47.5449L34.9029 51.9879C35.581 53.4142 37.2588 54.0398 38.7086 53.4142C42.5786 51.7423 45.8465 49.626 48.5122 47.0538C51.7626 43.9146 53.9898 40.3719 55.1941 36.4201C56.3984 32.4682 57.0005 27.0783 57.0005 20.2385V6.26672C57.0005 4.6533 55.6909 3.34375 54.0775 3.34375Z" fill="white"/>
<path d="M6.19886 53.4113C10.0221 51.7452 13.2724 49.629 15.9557 47.0626C19.2353 43.9233 21.4743 40.3924 22.6786 36.4698C23.8828 32.5472 24.4849 27.1397 24.4849 20.2473V6.27551C24.4849 4.66203 23.1755 3.35254 21.5619 3.35254H3.79028C2.1768 3.35254 0.867309 4.66203 0.867309 6.27551V24.0472C0.867309 25.6607 2.1768 26.9701 3.79028 26.9701H12.2961C12.185 31.6236 11.1035 35.3474 9.05747 38.1476C7.44399 40.3573 5.00039 42.1871 1.73251 43.6311C0.230102 44.2916 -0.418797 46.0688 0.282715 47.5537L2.38141 51.985C3.05959 53.4113 4.74907 54.0427 6.19886 53.4113Z" fill="white"/>
</g>
<defs>
<clipPath id="clip0">
<rect width="57" height="57" fill="white" transform="matrix(1 0 0 -1 0 57)"/>
</clipPath>
</defs>
</svg>
