<svg width="50" height="50" viewBox="0 0 50 50" fill="none" xmlns="http://www.w3.org/2000/svg">
<g clip-path="url(#clip0)">
<path d="M42.4467 7.32231C37.7773 2.60048 31.5688 0 24.9654 0C18.362 0 12.1535 2.60048 7.48412 7.32231C2.81475 12.0441 0.243164 18.3224 0.243164 25C0.243164 31.6776 2.81475 37.9559 7.48412 42.6777C12.1535 47.3995 18.362 50 24.9654 50C31.5688 50 37.7773 47.3995 42.4467 42.6777C47.116 37.9559 49.6876 31.6776 49.6876 25C49.6876 18.3224 47.116 12.0441 42.4467 7.32231ZM3.1403 25C3.1403 19.1048 5.41048 13.5624 9.53286 9.39407C13.6549 5.22537 19.1357 2.92969 24.9654 2.92969C30.7951 2.92969 36.2759 5.22537 40.3979 9.39407C40.4168 9.41315 40.4349 9.4326 40.4537 9.45168L33.1766 16.8102H31.4704L30.3334 13.6868H19.5974L18.4604 16.8102H9.56115V36.5826H13.6243L9.58944 40.6624C9.57096 40.6433 9.55134 40.625 9.53286 40.6063C5.41048 36.4376 3.1403 30.8952 3.1403 25ZM22.5405 23.5924C23.7201 22.3991 25.5524 22.2595 26.8859 23.1716L22.1248 27.9865C21.2225 26.638 21.3609 24.7852 22.5405 23.5924ZM27.3902 28.4966C26.6603 29.2347 25.6806 29.5689 24.7236 29.5013L28.3839 25.8003C28.4506 26.7677 28.1202 27.7584 27.3902 28.4966ZM22.3727 31.8787C23.1947 32.2514 24.0796 32.439 24.9654 32.439C26.5856 32.439 28.2054 31.8153 29.439 30.5683C31.3463 28.6396 31.7774 25.7755 30.7348 23.4226L34.3765 19.7399H37.4725V33.6529H20.6186L22.3727 31.8787ZM28.955 21.0793C26.4728 19.0365 22.8031 19.1833 20.4918 21.5206C18.1805 23.8579 18.0353 27.5688 20.0553 30.0789L16.5214 33.6525H12.4583V19.7399H20.4812L21.6182 16.6164H28.3126L29.4492 19.7399H30.2794L28.955 21.0793ZM40.3979 40.6059C36.2759 44.7746 30.7951 47.0703 24.9654 47.0703C20.1402 47.0703 15.5546 45.496 11.78 42.5903L17.7214 36.5826H40.3696V16.8102H37.2737L42.3603 11.6665C45.2336 15.4839 46.7905 20.1206 46.7905 25C46.7905 30.8952 44.5203 36.4376 40.3979 40.6059Z" fill="white"/>
<path d="M15.5015 21.3169C14.7437 21.3169 14.0179 21.9906 14.053 22.7817C14.0881 23.5756 14.6894 24.2466 15.5015 24.2466C16.2594 24.2466 16.9852 23.5729 16.9501 22.7817C16.915 21.9883 16.3137 21.3169 15.5015 21.3169Z" fill="white"/>
</g>
<defs>
<clipPath id="clip0">
<rect width="49.4444" height="50" fill="white" transform="translate(0.243164)"/>
</clipPath>
</defs>
</svg>
